<?xml version="1.0" encoding="UTF-8" standalone="no"?><!-- Generator: Gravit.io --><svg xmlns="http://www.w3.org/2000/svg" xmlns:xlink="http://www.w3.org/1999/xlink" style="isolation:isolate" viewBox="0 0 1024 1024" width="1024pt" height="1024pt"><defs><clipPath id="_clipPath_aq3pbXlEkgpNs1gu6KIJaJCiqB5QrPFm"><rect width="1024" height="1024"/></clipPath></defs><g clip-path="url(#_clipPath_aq3pbXlEkgpNs1gu6KIJaJCiqB5QrPFm)"><rect width="1024" height="1024" style="fill:rgb(255,136,0)" fill-opacity="0"/><g><rect x="-549.047" y="-263.309" width="1243.094" height="2429.619" transform="matrix(0.707,-0.707,0.707,0.707,-651.577,329.953)" fill="none"/><path d=" M 489.77 489.77 L 200.919 778.621 C 199.828 779.462 134.141 756.479 92.079 798.541 C 50.018 840.603 73.18 887.268 74.93 887.833 Q 76.679 888.398 123.429 839.333 Q 175.421 846.69 176.366 847.634 L 512 512 L 489.77 489.77 Z  M 534.23 534.23 L 245.379 823.081 C 244.538 824.172 267.521 889.859 225.459 931.921 C 183.397 973.982 136.732 950.82 136.167 949.07 Q 135.602 947.321 184.667 900.571 Q 177.31 848.579 176.366 847.634 L 512 512 L 534.23 534.23 Z " fill-rule="evenodd" fill="rgb(255,255,255)"/><path d=" M 489.775 489.775 L -347 -347 L 532 -1226 L 2250 492 L 1371 1371 L 534.235 534.235 L 750.663 318.646 C 757.341 313.322 808.335 296.531 847.339 272.302 C 913.047 231.485 977.251 95.133 974.143 94.327 C 971.035 93.52 905.921 162.549 851.344 217.126 C 849.513 218.748 847.584 217.373 846.435 216.163 C 845.286 214.952 844.412 213.153 845.891 211.674 Q 963.227 86.369 959.883 80.066 Q 956.539 73.763 832.889 198.671 C 831.371 199.787 829.456 199.177 827.141 196.869 L 827.141 196.869 C 824.833 194.554 824.223 192.639 825.339 191.121 Q 950.247 67.472 943.944 64.128 Q 937.641 60.784 812.336 178.119 C 810.857 179.598 809.058 178.724 807.847 177.575 C 806.637 176.426 805.263 174.497 806.884 172.666 C 861.461 118.089 930.49 52.975 929.683 49.867 C 928.877 46.759 792.526 110.963 751.708 176.671 C 727.479 215.675 710.688 266.669 705.364 273.347 L 489.775 489.775 Z " fill-rule="evenodd" fill="rgb(255,255,255)"/></g></g></svg>