<?xml version="1.0" encoding="UTF-8" standalone="no"?><!-- Generator: Gravit.io --><svg xmlns="http://www.w3.org/2000/svg" xmlns:xlink="http://www.w3.org/1999/xlink" style="isolation:isolate" viewBox="0 0 1024 1024" width="1024pt" height="1024pt"><defs><clipPath id="_clipPath_1QjiG4JJI7JUqS0mq9VuaHa37jn4OTAf"><rect width="1024" height="1024"/></clipPath></defs><g clip-path="url(#_clipPath_1QjiG4JJI7JUqS0mq9VuaHa37jn4OTAf)"><rect width="1024" height="1024" style="fill:rgb(255,136,0)" fill-opacity="0"/><g><path d=" M 223.062 800.331 Q 224.902 805.662 235.623 875.846 L 166.984 944.484 Q 235.016 980.93 294.543 921.402 C 354.07 861.875 320.084 767.451 321.27 765.902 L 543.586 543.586 L 512 512 L 479.807 479.807 L 257.49 702.123 C 255.942 703.309 161.518 669.322 101.99 728.85 Q 42.463 788.377 78.908 856.408 L 147.547 787.77 Q 217.731 798.491 223.062 800.331 Z " fill-rule="evenodd" fill="rgb(255,255,255)"/><path d=" M 543.638 543.638 L 543.638 543.638 L 1756 1756 L 3000 512 L 512 -1976 L -732 -732 L 479.754 479.754 L 588.896 370.224 C 595.307 361.853 612.285 295.342 640.527 245.703 C 688.106 162.078 866.336 88.836 868.918 91.418 C 871.499 93.999 784.891 175.444 717.67 242.666 C 715.696 244.944 717.746 247.677 719.492 249.348 C 721.238 251.018 723.744 252.385 725.566 250.562 Q 882.67 105.322 889.57 112.07 Q 896.47 118.818 744.396 269.392 C 743.156 271.175 743.961 273.583 746.779 276.614 C 749.81 279.431 752.217 280.237 754 278.996 Q 904.574 126.923 911.322 133.822 Q 918.071 140.722 772.83 297.826 C 771.008 299.649 772.375 302.154 774.045 303.901 C 775.716 305.647 778.449 307.697 780.727 305.723 C 847.948 238.502 929.393 151.893 931.975 154.475 C 934.556 157.056 861.314 335.287 777.69 382.865 C 728.051 411.108 661.54 428.086 653.168 434.496 L 543.638 543.638 Z " fill-rule="evenodd" fill="rgb(255,255,255)"/><rect x="-989.641" y="-625.282" width="1759.282" height="3518.563" transform="matrix(0.707,-0.707,0.707,0.707,-834.077,254.359)" fill="none"/></g></g></svg>